<?xml version="1.0" encoding="UTF-8" standalone="no"?>
<!DOCTYPE svg PUBLIC "-//W3C//DTD SVG 1.1//EN"
 "http://www.w3.org/Graphics/SVG/1.1/DTD/svg11.dtd">
<!-- Generated by graphviz version 13.1.0 (20250701.0955)
 -->
<!-- Pages: 1 -->
<svg width="1584pt" height="1382pt"
 viewBox="0.00 0.00 1584.00 1382.00" xmlns="http://www.w3.org/2000/svg" xmlns:xlink="http://www.w3.org/1999/xlink">
<g id="graph0" class="graph" transform="scale(1 1) rotate(0) translate(4 1378)">
<polygon fill="#0f0f0f" stroke="none" points="-4,4 -4,-1378 1579.7,-1378 1579.7,4 -4,4"/>
<!-- 60 -->
<g id="node1" class="node">
<title>60</title>
<polygon fill="#0f0f0f" stroke="none" points="1444.45,-74.75 961.95,-74.75 961.95,0 1444.45,0 1444.45,-74.75"/>
<polygon fill="none" stroke="#8adcfe" points="970.95,-5 970.95,-69.75 1435.45,-69.75 1435.45,-5 970.95,-5"/>
<text xml:space="preserve" text-anchor="start" x="981.95" y="-47.35" font-family="monospace" font-size="12.00" fill="#8adcfe">003C &#160;&#160;0x00EF88 &#160;&#160;43 03 02 00 &#160;&#160;Move &#160;&#160;&#160;&#160;&#160;&#160;&#160;&#160;&#160;&#160;&#160;&#160;&#160;&#160;&#160;&#160;r3, r2</text>
<text xml:space="preserve" text-anchor="start" x="981.95" y="-33.1" font-family="monospace" font-size="12.00" fill="#8adcfe">003D &#160;&#160;0x00EF90 &#160;&#160;43 02 03 00 &#160;&#160;Move &#160;&#160;&#160;&#160;&#160;&#160;&#160;&#160;&#160;&#160;&#160;&#160;&#160;&#160;&#160;&#160;r2, r3</text>
<text xml:space="preserve" text-anchor="start" x="981.95" y="-18.85" font-family="monospace" font-size="12.00" fill="#8adcfe">003E &#160;&#160;0x00EF98 &#160;&#160;00 02 02 00 &#160;&#160;Return &#160;&#160;&#160;&#160;&#160;&#160;&#160;&#160;&#160;&#160;&#160;&#160;&#160;&#160;r2</text>
<polygon fill="none" stroke="#8adcfe" points="969.95,-4 969.95,-70.75 1436.45,-70.75 1436.45,-4 969.95,-4"/>
</g>
<!-- 0 -->
<g id="node2" class="node">
<title>0</title>
<polygon fill="#0f0f0f" stroke="none" points="1453.45,-1374 940.95,-1374 940.95,-1228 1453.45,-1228 1453.45,-1374"/>
<polygon fill="none" stroke="#8adcfe" points="949.95,-1233 949.95,-1369 1444.45,-1369 1444.45,-1233 949.95,-1233"/>
<text xml:space="preserve" text-anchor="start" x="960.95" y="-1346.6" font-family="monospace" font-size="12.00" fill="#8adcfe">0000 &#160;&#160;0x00EDA8 &#160;&#160;43 00 31 00 &#160;&#160;Move &#160;&#160;&#160;&#160;&#160;&#160;&#160;&#160;&#160;&#160;&#160;&#160;&#160;&#160;&#160;&#160;r0, r49</text>
<text xml:space="preserve" text-anchor="start" x="960.95" y="-1332.35" font-family="monospace" font-size="12.00" fill="#8adcfe">0001 &#160;&#160;0x00EDB0 &#160;&#160;43 01 32 00 &#160;&#160;Move &#160;&#160;&#160;&#160;&#160;&#160;&#160;&#160;&#160;&#160;&#160;&#160;&#160;&#160;&#160;&#160;r1, r50</text>
<text xml:space="preserve" text-anchor="start" x="960.95" y="-1318.1" font-family="monospace" font-size="12.00" fill="#8adcfe">0002 &#160;&#160;0x00EDB8 &#160;&#160;0C 02 00 00 &#160;&#160;LoadU16Imm &#160;&#160;&#160;&#160;&#160;&#160;&#160;&#160;&#160;&#160;r2, 0</text>
<text xml:space="preserve" text-anchor="start" x="960.95" y="-1303.85" font-family="monospace" font-size="12.00" fill="#8adcfe">0003 &#160;&#160;0x00EDC0 &#160;&#160;43 03 00 00 &#160;&#160;Move &#160;&#160;&#160;&#160;&#160;&#160;&#160;&#160;&#160;&#160;&#160;&#160;&#160;&#160;&#160;&#160;r3, r0</text>
<text xml:space="preserve" text-anchor="start" x="960.95" y="-1289.6" font-family="monospace" font-size="12.00" fill="#8adcfe">0004 &#160;&#160;0x00EDC8 &#160;&#160;0C 04 00 00 &#160;&#160;LoadU16Imm &#160;&#160;&#160;&#160;&#160;&#160;&#160;&#160;&#160;&#160;r4, 0</text>
<text xml:space="preserve" text-anchor="start" x="960.95" y="-1275.35" font-family="monospace" font-size="12.00" fill="#8adcfe">0005 &#160;&#160;0x00EDD0 &#160;&#160;1D 03 03 04 &#160;&#160;IEqual &#160;&#160;&#160;&#160;&#160;&#160;&#160;&#160;&#160;&#160;&#160;&#160;&#160;&#160;r3, r3, r4</text>
<text xml:space="preserve" text-anchor="start" x="960.95" y="-1261.1" font-family="monospace" font-size="12.00" fill="#8adcfe">0006 &#160;&#160;0x00EDD8 &#160;&#160;30 03 03 00 &#160;&#160;OpLogNot &#160;&#160;&#160;&#160;&#160;&#160;&#160;&#160;&#160;&#160;&#160;&#160;r3, r3</text>
<text xml:space="preserve" text-anchor="start" x="960.95" y="-1246.85" font-family="monospace" font-size="12.00" fill="#8adcfe">0007 &#160;&#160;0x00EDE0 &#160;&#160;2F 3B 03 00 &#160;&#160;BranchIfNot &#160;&#160;&#160;&#160;&#160;&#160;&#160;&#160;&#160;r3, 0x3B</text>
<polygon fill="none" stroke="#8adcfe" points="948.95,-1232 948.95,-1370 1445.45,-1370 1445.45,-1232 948.95,-1232"/>
</g>
<!-- 8 -->
<g id="node3" class="node">
<title>8</title>
<polygon fill="#0f0f0f" stroke="none" points="1309.7,-1191.95 804.7,-1191.95 804.7,-960.45 1309.7,-960.45 1309.7,-1191.95"/>
<polygon fill="none" stroke="#8adcfe" points="813.7,-965.45 813.7,-1186.95 1300.7,-1186.95 1300.7,-965.45 813.7,-965.45"/>
<text xml:space="preserve" text-anchor="start" x="824.7" y="-1164.55" font-family="monospace" font-size="12.00" fill="#8adcfe">0008 &#160;&#160;0x00EDE8 &#160;&#160;15 03 00 00 &#160;&#160;LookupPointer &#160;&#160;&#160;&#160;&#160;&#160;&#160;r3, 0</text>
<text xml:space="preserve" text-anchor="start" x="824.7" y="-1150.3" font-family="monospace" font-size="12.00" fill="#8adcfe">0009 &#160;&#160;0x00EDF0 &#160;&#160;43 04 00 00 &#160;&#160;Move &#160;&#160;&#160;&#160;&#160;&#160;&#160;&#160;&#160;&#160;&#160;&#160;&#160;&#160;&#160;&#160;r4, r0</text>
<text xml:space="preserve" text-anchor="start" x="824.7" y="-1136.05" font-family="monospace" font-size="12.00" fill="#8adcfe">000A &#160;&#160;0x00EDF8 &#160;&#160;43 05 01 00 &#160;&#160;Move &#160;&#160;&#160;&#160;&#160;&#160;&#160;&#160;&#160;&#160;&#160;&#160;&#160;&#160;&#160;&#160;r5, r1</text>
<text xml:space="preserve" text-anchor="start" x="824.7" y="-1121.8" font-family="monospace" font-size="12.00" fill="#8adcfe">000B &#160;&#160;0x00EE00 &#160;&#160;43 31 04 00 &#160;&#160;Move &#160;&#160;&#160;&#160;&#160;&#160;&#160;&#160;&#160;&#160;&#160;&#160;&#160;&#160;&#160;&#160;r49, r4</text>
<text xml:space="preserve" text-anchor="start" x="824.7" y="-1107.55" font-family="monospace" font-size="12.00" fill="#8adcfe">000C &#160;&#160;0x00EE08 &#160;&#160;43 32 05 00 &#160;&#160;Move &#160;&#160;&#160;&#160;&#160;&#160;&#160;&#160;&#160;&#160;&#160;&#160;&#160;&#160;&#160;&#160;r50, r5</text>
<text xml:space="preserve" text-anchor="start" x="824.7" y="-1093.3" font-family="monospace" font-size="12.00" fill="#8adcfe">000D &#160;&#160;0x00EE10 &#160;&#160;1C 03 03 02 &#160;&#160;CallFf &#160;&#160;&#160;&#160;&#160;&#160;&#160;&#160;&#160;&#160;&#160;&#160;&#160;&#160;r3, r3, 2</text>
<text xml:space="preserve" text-anchor="start" x="824.7" y="-1079.05" font-family="monospace" font-size="12.00" fill="#8adcfe">000E &#160;&#160;0x00EE18 &#160;&#160;15 04 01 00 &#160;&#160;LookupPointer &#160;&#160;&#160;&#160;&#160;&#160;&#160;r4, 1</text>
<text xml:space="preserve" text-anchor="start" x="824.7" y="-1064.8" font-family="monospace" font-size="12.00" fill="#8adcfe">000F &#160;&#160;0x00EE20 &#160;&#160;43 05 01 00 &#160;&#160;Move &#160;&#160;&#160;&#160;&#160;&#160;&#160;&#160;&#160;&#160;&#160;&#160;&#160;&#160;&#160;&#160;r5, r1</text>
<text xml:space="preserve" text-anchor="start" x="824.7" y="-1050.55" font-family="monospace" font-size="12.00" fill="#8adcfe">0010 &#160;&#160;0x00EE28 &#160;&#160;0C 06 00 00 &#160;&#160;LoadU16Imm &#160;&#160;&#160;&#160;&#160;&#160;&#160;&#160;&#160;&#160;r6, 0</text>
<text xml:space="preserve" text-anchor="start" x="824.7" y="-1036.3" font-family="monospace" font-size="12.00" fill="#8adcfe">0011 &#160;&#160;0x00EE30 &#160;&#160;43 31 05 00 &#160;&#160;Move &#160;&#160;&#160;&#160;&#160;&#160;&#160;&#160;&#160;&#160;&#160;&#160;&#160;&#160;&#160;&#160;r49, r5</text>
<text xml:space="preserve" text-anchor="start" x="824.7" y="-1022.05" font-family="monospace" font-size="12.00" fill="#8adcfe">0012 &#160;&#160;0x00EE38 &#160;&#160;43 32 06 00 &#160;&#160;Move &#160;&#160;&#160;&#160;&#160;&#160;&#160;&#160;&#160;&#160;&#160;&#160;&#160;&#160;&#160;&#160;r50, r6</text>
<text xml:space="preserve" text-anchor="start" x="824.7" y="-1007.8" font-family="monospace" font-size="12.00" fill="#8adcfe">0013 &#160;&#160;0x00EE40 &#160;&#160;1C 04 04 02 &#160;&#160;CallFf &#160;&#160;&#160;&#160;&#160;&#160;&#160;&#160;&#160;&#160;&#160;&#160;&#160;&#160;r4, r4, 2</text>
<text xml:space="preserve" text-anchor="start" x="824.7" y="-993.55" font-family="monospace" font-size="12.00" fill="#8adcfe">0014 &#160;&#160;0x00EE48 &#160;&#160;43 05 03 00 &#160;&#160;Move &#160;&#160;&#160;&#160;&#160;&#160;&#160;&#160;&#160;&#160;&#160;&#160;&#160;&#160;&#160;&#160;r5, r3</text>
<text xml:space="preserve" text-anchor="start" x="824.7" y="-979.3" font-family="monospace" font-size="12.00" fill="#8adcfe">0015 &#160;&#160;0x00EE50 &#160;&#160;2E 1A 05 00 &#160;&#160;BranchIf &#160;&#160;&#160;&#160;&#160;&#160;&#160;&#160;&#160;&#160;&#160;&#160;r5, 0x1A</text>
<polygon fill="none" stroke="#8adcfe" points="812.7,-964.45 812.7,-1187.95 1301.7,-1187.95 1301.7,-964.45 812.7,-964.45"/>
</g>
<!-- 0&#45;&gt;8 -->
<g id="edge1" class="edge">
<title>0&#45;&gt;8</title>
<path fill="none" stroke="white" d="M1125.4,-1228C1125.4,-1228 1125.4,-1203.2 1125.4,-1203.2"/>
<polygon fill="white" stroke="white" points="1128.9,-1203.21 1125.4,-1193.21 1121.9,-1203.21 1128.9,-1203.21"/>
</g>
<!-- 59 -->
<g id="node4" class="node">
<title>59</title>
<polygon fill="#0f0f0f" stroke="none" points="1575.7,-903.13 1100.7,-903.13 1100.7,-856.88 1575.7,-856.88 1575.7,-903.13"/>
<polygon fill="none" stroke="#8adcfe" points="1109.7,-861.88 1109.7,-898.13 1566.7,-898.13 1566.7,-861.88 1109.7,-861.88"/>
<text xml:space="preserve" text-anchor="start" x="1120.7" y="-875.73" font-family="monospace" font-size="12.00" fill="#8adcfe">003B &#160;&#160;0x00EF80 &#160;&#160;0C 03 00 00 &#160;&#160;LoadU16Imm &#160;&#160;&#160;&#160;&#160;&#160;&#160;&#160;&#160;&#160;r3, 0</text>
<polygon fill="none" stroke="#8adcfe" points="1108.7,-860.88 1108.7,-899.13 1567.7,-899.13 1567.7,-860.88 1108.7,-860.88"/>
</g>
<!-- 0&#45;&gt;59 -->
<g id="edge2" class="edge">
<title>0&#45;&gt;59</title>
<path fill="none" stroke="white" d="M1381.6,-1228.1C1381.6,-1228.1 1381.6,-914.63 1381.6,-914.63"/>
<polygon fill="white" stroke="white" points="1385.1,-914.62 1381.6,-904.62 1378.1,-914.62 1385.1,-914.62"/>
</g>
<!-- 22 -->
<g id="node5" class="node">
<title>22</title>
<polygon fill="#0f0f0f" stroke="none" points="1037.75,-924.5 532.75,-924.5 532.75,-835.5 1037.75,-835.5 1037.75,-924.5"/>
<polygon fill="none" stroke="#8adcfe" points="541.75,-840.5 541.75,-919.5 1028.75,-919.5 1028.75,-840.5 541.75,-840.5"/>
<text xml:space="preserve" text-anchor="start" x="552.75" y="-897.1" font-family="monospace" font-size="12.00" fill="#8adcfe">0016 &#160;&#160;0x00EE58 &#160;&#160;15 05 02 00 &#160;&#160;LookupPointer &#160;&#160;&#160;&#160;&#160;&#160;&#160;r5, 2</text>
<text xml:space="preserve" text-anchor="start" x="552.75" y="-882.85" font-family="monospace" font-size="12.00" fill="#8adcfe">0017 &#160;&#160;0x00EE60 &#160;&#160;43 06 00 00 &#160;&#160;Move &#160;&#160;&#160;&#160;&#160;&#160;&#160;&#160;&#160;&#160;&#160;&#160;&#160;&#160;&#160;&#160;r6, r0</text>
<text xml:space="preserve" text-anchor="start" x="552.75" y="-868.6" font-family="monospace" font-size="12.00" fill="#8adcfe">0018 &#160;&#160;0x00EE68 &#160;&#160;43 31 06 00 &#160;&#160;Move &#160;&#160;&#160;&#160;&#160;&#160;&#160;&#160;&#160;&#160;&#160;&#160;&#160;&#160;&#160;&#160;r49, r6</text>
<text xml:space="preserve" text-anchor="start" x="552.75" y="-854.35" font-family="monospace" font-size="12.00" fill="#8adcfe">0019 &#160;&#160;0x00EE70 &#160;&#160;1B 05 05 01 &#160;&#160;Call &#160;&#160;&#160;&#160;&#160;&#160;&#160;&#160;&#160;&#160;&#160;&#160;&#160;&#160;&#160;&#160;r5, r5, 1</text>
<polygon fill="none" stroke="#8adcfe" points="540.75,-839.5 540.75,-920.5 1029.75,-920.5 1029.75,-839.5 540.75,-839.5"/>
</g>
<!-- 8&#45;&gt;22 -->
<g id="edge3" class="edge">
<title>8&#45;&gt;22</title>
<path fill="none" stroke="white" d="M921.25,-960.67C921.25,-960.67 921.25,-935.89 921.25,-935.89"/>
<polygon fill="white" stroke="white" points="924.75,-935.88 921.25,-925.88 917.75,-935.88 924.75,-935.88"/>
</g>
<!-- 26 -->
<g id="node6" class="node">
<title>26</title>
<polygon fill="#0f0f0f" stroke="none" points="1040,-799.51 542.5,-799.51 542.5,-753.26 1040,-753.26 1040,-799.51"/>
<polygon fill="none" stroke="#8adcfe" points="551.5,-758.26 551.5,-794.51 1031,-794.51 1031,-758.26 551.5,-758.26"/>
<text xml:space="preserve" text-anchor="start" x="562.5" y="-772.11" font-family="monospace" font-size="12.00" fill="#8adcfe">001A &#160;&#160;0x00EE78 &#160;&#160;2F 38 05 00 &#160;&#160;BranchIfNot &#160;&#160;&#160;&#160;&#160;&#160;&#160;&#160;&#160;r5, 0x38</text>
<polygon fill="none" stroke="#8adcfe" points="550.5,-757.26 550.5,-795.51 1032,-795.51 1032,-757.26 550.5,-757.26"/>
</g>
<!-- 8&#45;&gt;26 -->
<g id="edge4" class="edge">
<title>8&#45;&gt;26</title>
<path fill="none" stroke="white" d="M1081.7,-960.75C1081.7,-879.06 1081.7,-784 1081.7,-784 1081.7,-784 1051.3,-784 1051.3,-784"/>
<polygon fill="white" stroke="white" points="1051.22,-780.5 1041.22,-784 1051.22,-787.5 1051.22,-780.5"/>
</g>
<!-- 59&#45;&gt;60 -->
<g id="edge5" class="edge">
<title>59&#45;&gt;60</title>
<path fill="none" stroke="white" d="M1377.5,-857.02C1377.5,-857.02 1377.5,-86.07 1377.5,-86.07"/>
<polygon fill="white" stroke="white" points="1381,-86.07 1377.5,-76.07 1374,-86.07 1381,-86.07"/>
</g>
<!-- 22&#45;&gt;26 -->
<g id="edge6" class="edge">
<title>22&#45;&gt;26</title>
<path fill="none" stroke="white" d="M790.12,-835.75C790.12,-835.75 790.12,-810.85 790.12,-810.85"/>
<polygon fill="white" stroke="white" points="793.62,-810.85 790.12,-800.85 786.62,-810.85 793.62,-810.85"/>
</g>
<!-- 27 -->
<g id="node7" class="node">
<title>27</title>
<polygon fill="#0f0f0f" stroke="none" points="1039.75,-717.25 534.75,-717.25 534.75,-614 1039.75,-614 1039.75,-717.25"/>
<polygon fill="none" stroke="#8adcfe" points="543.75,-619 543.75,-712.25 1030.75,-712.25 1030.75,-619 543.75,-619"/>
<text xml:space="preserve" text-anchor="start" x="554.75" y="-689.85" font-family="monospace" font-size="12.00" fill="#8adcfe">001B &#160;&#160;0x00EE80 &#160;&#160;15 05 02 00 &#160;&#160;LookupPointer &#160;&#160;&#160;&#160;&#160;&#160;&#160;r5, 2</text>
<text xml:space="preserve" text-anchor="start" x="554.75" y="-675.6" font-family="monospace" font-size="12.00" fill="#8adcfe">001C &#160;&#160;0x00EE88 &#160;&#160;43 06 00 00 &#160;&#160;Move &#160;&#160;&#160;&#160;&#160;&#160;&#160;&#160;&#160;&#160;&#160;&#160;&#160;&#160;&#160;&#160;r6, r0</text>
<text xml:space="preserve" text-anchor="start" x="554.75" y="-661.35" font-family="monospace" font-size="12.00" fill="#8adcfe">001D &#160;&#160;0x00EE90 &#160;&#160;43 31 06 00 &#160;&#160;Move &#160;&#160;&#160;&#160;&#160;&#160;&#160;&#160;&#160;&#160;&#160;&#160;&#160;&#160;&#160;&#160;r49, r6</text>
<text xml:space="preserve" text-anchor="start" x="554.75" y="-647.1" font-family="monospace" font-size="12.00" fill="#8adcfe">001E &#160;&#160;0x00EE98 &#160;&#160;1B 05 05 01 &#160;&#160;Call &#160;&#160;&#160;&#160;&#160;&#160;&#160;&#160;&#160;&#160;&#160;&#160;&#160;&#160;&#160;&#160;r5, r5, 1</text>
<text xml:space="preserve" text-anchor="start" x="554.75" y="-632.85" font-family="monospace" font-size="12.00" fill="#8adcfe">001F &#160;&#160;0x00EEA0 &#160;&#160;2F 25 05 00 &#160;&#160;BranchIfNot &#160;&#160;&#160;&#160;&#160;&#160;&#160;&#160;&#160;r5, 0x25</text>
<polygon fill="none" stroke="#8adcfe" points="542.75,-618 542.75,-713.25 1031.75,-713.25 1031.75,-618 542.75,-618"/>
</g>
<!-- 26&#45;&gt;27 -->
<g id="edge7" class="edge">
<title>26&#45;&gt;27</title>
<path fill="none" stroke="white" d="M791.12,-753.43C791.12,-753.43 791.12,-728.37 791.12,-728.37"/>
<polygon fill="white" stroke="white" points="794.62,-728.37 791.12,-718.37 787.62,-728.37 794.62,-728.37"/>
</g>
<!-- 56 -->
<g id="node8" class="node">
<title>56</title>
<polygon fill="#0f0f0f" stroke="none" points="1308.7,-267.75 833.7,-267.75 833.7,-221.5 1308.7,-221.5 1308.7,-267.75"/>
<polygon fill="none" stroke="#8adcfe" points="842.7,-226.5 842.7,-262.75 1299.7,-262.75 1299.7,-226.5 842.7,-226.5"/>
<text xml:space="preserve" text-anchor="start" x="853.7" y="-240.35" font-family="monospace" font-size="12.00" fill="#8adcfe">0038 &#160;&#160;0x00EF68 &#160;&#160;0C 05 00 00 &#160;&#160;LoadU16Imm &#160;&#160;&#160;&#160;&#160;&#160;&#160;&#160;&#160;&#160;r5, 0</text>
<polygon fill="none" stroke="#8adcfe" points="841.7,-225.5 841.7,-263.75 1300.7,-263.75 1300.7,-225.5 841.7,-225.5"/>
</g>
<!-- 26&#45;&gt;56 -->
<g id="edge8" class="edge">
<title>26&#45;&gt;56</title>
<path fill="none" stroke="white" d="M1039.9,-769C1054,-769 1062.6,-769 1062.6,-769 1062.6,-769 1062.6,-279.01 1062.6,-279.01"/>
<polygon fill="white" stroke="white" points="1066.1,-279 1062.6,-269 1059.1,-279 1066.1,-279"/>
</g>
<!-- 32 -->
<g id="node9" class="node">
<title>32</title>
<polygon fill="#0f0f0f" stroke="none" points="512.5,-499.63 0,-499.63 0,-396.38 512.5,-396.38 512.5,-499.63"/>
<polygon fill="none" stroke="#8adcfe" points="9,-401.38 9,-494.63 503.5,-494.63 503.5,-401.38 9,-401.38"/>
<text xml:space="preserve" text-anchor="start" x="20" y="-472.23" font-family="monospace" font-size="12.00" fill="#8adcfe">0020 &#160;&#160;0x00EEA8 &#160;&#160;43 05 04 00 &#160;&#160;Move &#160;&#160;&#160;&#160;&#160;&#160;&#160;&#160;&#160;&#160;&#160;&#160;&#160;&#160;&#160;&#160;r5, r4</text>
<text xml:space="preserve" text-anchor="start" x="20" y="-457.98" font-family="monospace" font-size="12.00" fill="#8adcfe">0021 &#160;&#160;0x00EEB0 &#160;&#160;5D 05 00 00 &#160;&#160;AssertPointer &#160;&#160;&#160;&#160;&#160;&#160;&#160;r5</text>
<text xml:space="preserve" text-anchor="start" x="20" y="-443.73" font-family="monospace" font-size="12.00" fill="#8adcfe">0022 &#160;&#160;0x00EEB8 &#160;&#160;3B 05 05 18 &#160;&#160;IAddImm &#160;&#160;&#160;&#160;&#160;&#160;&#160;&#160;&#160;&#160;&#160;&#160;&#160;r5, r5, 24</text>
<text xml:space="preserve" text-anchor="start" x="20" y="-429.48" font-family="monospace" font-size="12.00" fill="#8adcfe">0023 &#160;&#160;0x00EEC0 &#160;&#160;4F 05 05 00 &#160;&#160;LoadI32 &#160;&#160;&#160;&#160;&#160;&#160;&#160;&#160;&#160;&#160;&#160;&#160;&#160;r5, r5</text>
<text xml:space="preserve" text-anchor="start" x="20" y="-415.23" font-family="monospace" font-size="12.00" fill="#8adcfe">0024 &#160;&#160;0x00EEC8 &#160;&#160;2D 35 00 00 &#160;&#160;Branch &#160;&#160;&#160;&#160;&#160;&#160;&#160;&#160;&#160;&#160;&#160;&#160;&#160;&#160;0x35</text>
<polygon fill="none" stroke="#8adcfe" points="8,-400.38 8,-495.63 504.5,-495.63 504.5,-400.38 8,-400.38"/>
</g>
<!-- 27&#45;&gt;32 -->
<g id="edge9" class="edge">
<title>27&#45;&gt;32</title>
<path fill="none" stroke="white" d="M534.97,-666C397.96,-666 256.25,-666 256.25,-666 256.25,-666 256.25,-510.9 256.25,-510.9"/>
<polygon fill="white" stroke="white" points="259.75,-510.9 256.25,-500.9 252.75,-510.9 259.75,-510.9"/>
</g>
<!-- 37 -->
<g id="node10" class="node">
<title>37</title>
<polygon fill="#0f0f0f" stroke="none" points="1043.5,-578 531,-578 531,-318 1043.5,-318 1043.5,-578"/>
<polygon fill="none" stroke="#8adcfe" points="540,-323 540,-573 1034.5,-573 1034.5,-323 540,-323"/>
<text xml:space="preserve" text-anchor="start" x="551" y="-550.6" font-family="monospace" font-size="12.00" fill="#8adcfe">0025 &#160;&#160;0x00EED0 &#160;&#160;43 05 03 00 &#160;&#160;Move &#160;&#160;&#160;&#160;&#160;&#160;&#160;&#160;&#160;&#160;&#160;&#160;&#160;&#160;&#160;&#160;r5, r3</text>
<text xml:space="preserve" text-anchor="start" x="551" y="-536.35" font-family="monospace" font-size="12.00" fill="#8adcfe">0026 &#160;&#160;0x00EED8 &#160;&#160;5D 05 00 00 &#160;&#160;AssertPointer &#160;&#160;&#160;&#160;&#160;&#160;&#160;r5</text>
<text xml:space="preserve" text-anchor="start" x="551" y="-522.1" font-family="monospace" font-size="12.00" fill="#8adcfe">0027 &#160;&#160;0x00EEE0 &#160;&#160;0F 05 05 00 &#160;&#160;LoadPointer &#160;&#160;&#160;&#160;&#160;&#160;&#160;&#160;&#160;r5, [r5]</text>
<text xml:space="preserve" text-anchor="start" x="551" y="-507.85" font-family="monospace" font-size="12.00" fill="#8adcfe">0028 &#160;&#160;0x00EEE8 &#160;&#160;0C 06 00 00 &#160;&#160;LoadU16Imm &#160;&#160;&#160;&#160;&#160;&#160;&#160;&#160;&#160;&#160;r6, 0</text>
<text xml:space="preserve" text-anchor="start" x="551" y="-493.6" font-family="monospace" font-size="12.00" fill="#8adcfe">0029 &#160;&#160;0x00EEF0 &#160;&#160;3D 06 06 20 &#160;&#160;IMulImm &#160;&#160;&#160;&#160;&#160;&#160;&#160;&#160;&#160;&#160;&#160;&#160;&#160;r6, r6, 32</text>
<text xml:space="preserve" text-anchor="start" x="551" y="-479.35" font-family="monospace" font-size="12.00" fill="#8adcfe">002A &#160;&#160;0x00EEF8 &#160;&#160;01 05 05 06 &#160;&#160;IAdd &#160;&#160;&#160;&#160;&#160;&#160;&#160;&#160;&#160;&#160;&#160;&#160;&#160;&#160;&#160;&#160;r5, r5, r6</text>
<text xml:space="preserve" text-anchor="start" x="551" y="-465.1" font-family="monospace" font-size="12.00" fill="#8adcfe">002B &#160;&#160;0x00EF00 &#160;&#160;5D 05 00 00 &#160;&#160;AssertPointer &#160;&#160;&#160;&#160;&#160;&#160;&#160;r5</text>
<text xml:space="preserve" text-anchor="start" x="551" y="-450.85" font-family="monospace" font-size="12.00" fill="#8adcfe">002C &#160;&#160;0x00EF08 &#160;&#160;3B 05 05 08 &#160;&#160;IAddImm &#160;&#160;&#160;&#160;&#160;&#160;&#160;&#160;&#160;&#160;&#160;&#160;&#160;r5, r5, 8</text>
<text xml:space="preserve" text-anchor="start" x="551" y="-436.6" font-family="monospace" font-size="12.00" fill="#8adcfe">002D &#160;&#160;0x00EF10 &#160;&#160;0F 05 05 00 &#160;&#160;LoadPointer &#160;&#160;&#160;&#160;&#160;&#160;&#160;&#160;&#160;r5, [r5]</text>
<text xml:space="preserve" text-anchor="start" x="551" y="-422.35" font-family="monospace" font-size="12.00" fill="#8adcfe">002E &#160;&#160;0x00EF18 &#160;&#160;5D 05 00 00 &#160;&#160;AssertPointer &#160;&#160;&#160;&#160;&#160;&#160;&#160;r5</text>
<text xml:space="preserve" text-anchor="start" x="551" y="-408.1" font-family="monospace" font-size="12.00" fill="#8adcfe">002F &#160;&#160;0x00EF20 &#160;&#160;3B 05 05 08 &#160;&#160;IAddImm &#160;&#160;&#160;&#160;&#160;&#160;&#160;&#160;&#160;&#160;&#160;&#160;&#160;r5, r5, 8</text>
<text xml:space="preserve" text-anchor="start" x="551" y="-393.85" font-family="monospace" font-size="12.00" fill="#8adcfe">0030 &#160;&#160;0x00EF28 &#160;&#160;0F 05 05 00 &#160;&#160;LoadPointer &#160;&#160;&#160;&#160;&#160;&#160;&#160;&#160;&#160;r5, [r5]</text>
<text xml:space="preserve" text-anchor="start" x="551" y="-379.6" font-family="monospace" font-size="12.00" fill="#8adcfe">0031 &#160;&#160;0x00EF30 &#160;&#160;0C 06 00 00 &#160;&#160;LoadU16Imm &#160;&#160;&#160;&#160;&#160;&#160;&#160;&#160;&#160;&#160;r6, 0</text>
<text xml:space="preserve" text-anchor="start" x="551" y="-365.35" font-family="monospace" font-size="12.00" fill="#8adcfe">0032 &#160;&#160;0x00EF38 &#160;&#160;3D 06 06 04 &#160;&#160;IMulImm &#160;&#160;&#160;&#160;&#160;&#160;&#160;&#160;&#160;&#160;&#160;&#160;&#160;r6, r6, 4</text>
<text xml:space="preserve" text-anchor="start" x="551" y="-351.1" font-family="monospace" font-size="12.00" fill="#8adcfe">0033 &#160;&#160;0x00EF40 &#160;&#160;01 05 05 06 &#160;&#160;IAdd &#160;&#160;&#160;&#160;&#160;&#160;&#160;&#160;&#160;&#160;&#160;&#160;&#160;&#160;&#160;&#160;r5, r5, r6</text>
<text xml:space="preserve" text-anchor="start" x="551" y="-336.85" font-family="monospace" font-size="12.00" fill="#8adcfe">0034 &#160;&#160;0x00EF48 &#160;&#160;0D 05 05 00 &#160;&#160;LoadU32 &#160;&#160;&#160;&#160;&#160;&#160;&#160;&#160;&#160;&#160;&#160;&#160;&#160;r5, [r5]</text>
<polygon fill="none" stroke="#8adcfe" points="539,-322 539,-574 1035.5,-574 1035.5,-322 539,-322"/>
</g>
<!-- 27&#45;&gt;37 -->
<g id="edge10" class="edge">
<title>27&#45;&gt;37</title>
<path fill="none" stroke="white" d="M787.25,-614.05C787.25,-614.05 787.25,-589.35 787.25,-589.35"/>
<polygon fill="white" stroke="white" points="790.75,-589.35 787.25,-579.35 783.75,-589.35 790.75,-589.35"/>
</g>
<!-- 57 -->
<g id="node11" class="node">
<title>57</title>
<polygon fill="#0f0f0f" stroke="none" points="1310.45,-171.25 827.95,-171.25 827.95,-110.75 1310.45,-110.75 1310.45,-171.25"/>
<polygon fill="none" stroke="#8adcfe" points="836.95,-115.75 836.95,-166.25 1301.45,-166.25 1301.45,-115.75 836.95,-115.75"/>
<text xml:space="preserve" text-anchor="start" x="847.95" y="-143.85" font-family="monospace" font-size="12.00" fill="#8adcfe">0039 &#160;&#160;0x00EF70 &#160;&#160;43 03 05 00 &#160;&#160;Move &#160;&#160;&#160;&#160;&#160;&#160;&#160;&#160;&#160;&#160;&#160;&#160;&#160;&#160;&#160;&#160;r3, r5</text>
<text xml:space="preserve" text-anchor="start" x="847.95" y="-129.6" font-family="monospace" font-size="12.00" fill="#8adcfe">003A &#160;&#160;0x00EF78 &#160;&#160;2D 3C 00 00 &#160;&#160;Branch &#160;&#160;&#160;&#160;&#160;&#160;&#160;&#160;&#160;&#160;&#160;&#160;&#160;&#160;0x3C</text>
<polygon fill="none" stroke="#8adcfe" points="835.95,-114.75 835.95,-167.25 1302.45,-167.25 1302.45,-114.75 835.95,-114.75"/>
</g>
<!-- 56&#45;&gt;57 -->
<g id="edge11" class="edge">
<title>56&#45;&gt;57</title>
<path fill="none" stroke="white" d="M1150.4,-221.63C1150.4,-221.63 1150.4,-182.53 1150.4,-182.53"/>
<polygon fill="white" stroke="white" points="1153.9,-182.53 1150.4,-172.53 1146.9,-182.53 1153.9,-182.53"/>
</g>
<!-- 53 -->
<g id="node12" class="node">
<title>53</title>
<polygon fill="#0f0f0f" stroke="none" points="815.5,-282 333,-282 333,-207.24 815.5,-207.24 815.5,-282"/>
<polygon fill="none" stroke="#8adcfe" points="342,-212.25 342,-277 806.5,-277 806.5,-212.25 342,-212.25"/>
<text xml:space="preserve" text-anchor="start" x="353" y="-254.6" font-family="monospace" font-size="12.00" fill="#8adcfe">0035 &#160;&#160;0x00EF50 &#160;&#160;43 02 05 00 &#160;&#160;Move &#160;&#160;&#160;&#160;&#160;&#160;&#160;&#160;&#160;&#160;&#160;&#160;&#160;&#160;&#160;&#160;r2, r5</text>
<text xml:space="preserve" text-anchor="start" x="353" y="-240.35" font-family="monospace" font-size="12.00" fill="#8adcfe">0036 &#160;&#160;0x00EF58 &#160;&#160;43 05 02 00 &#160;&#160;Move &#160;&#160;&#160;&#160;&#160;&#160;&#160;&#160;&#160;&#160;&#160;&#160;&#160;&#160;&#160;&#160;r5, r2</text>
<text xml:space="preserve" text-anchor="start" x="353" y="-226.1" font-family="monospace" font-size="12.00" fill="#8adcfe">0037 &#160;&#160;0x00EF60 &#160;&#160;2D 39 00 00 &#160;&#160;Branch &#160;&#160;&#160;&#160;&#160;&#160;&#160;&#160;&#160;&#160;&#160;&#160;&#160;&#160;0x39</text>
<polygon fill="none" stroke="#8adcfe" points="341,-211.25 341,-278 807.5,-278 807.5,-211.25 341,-211.25"/>
</g>
<!-- 32&#45;&gt;53 -->
<g id="edge12" class="edge">
<title>32&#45;&gt;53</title>
<path fill="none" stroke="white" d="M422.75,-396.42C422.75,-396.42 422.75,-293.23 422.75,-293.23"/>
<polygon fill="white" stroke="white" points="426.25,-293.22 422.75,-283.22 419.25,-293.22 426.25,-293.22"/>
</g>
<!-- 37&#45;&gt;53 -->
<g id="edge13" class="edge">
<title>37&#45;&gt;53</title>
<path fill="none" stroke="white" d="M673.25,-318.05C673.25,-318.05 673.25,-293.32 673.25,-293.32"/>
<polygon fill="white" stroke="white" points="676.75,-293.32 673.25,-283.32 669.75,-293.32 676.75,-293.32"/>
</g>
<!-- 57&#45;&gt;60 -->
<g id="edge14" class="edge">
<title>57&#45;&gt;60</title>
<path fill="none" stroke="white" d="M1136.2,-111.03C1136.2,-111.03 1136.2,-86.17 1136.2,-86.17"/>
<polygon fill="white" stroke="white" points="1139.7,-86.16 1136.2,-76.16 1132.7,-86.16 1139.7,-86.16"/>
</g>
<!-- 53&#45;&gt;57 -->
<g id="edge15" class="edge">
<title>53&#45;&gt;57</title>
<path fill="none" stroke="white" d="M815.49,-214C908.13,-214 992.08,-214 992.08,-214 992.08,-214 992.08,-182.63 992.08,-182.63"/>
<polygon fill="white" stroke="white" points="995.58,-182.62 992.08,-172.62 988.58,-182.62 995.58,-182.62"/>
</g>
</g>
</svg>
